<svg width="1350" height="250" viewBox="0 0 1350 250" fill="none" xmlns="http://www.w3.org/2000/svg">
<path d="M330 195.027V53H360.474V195.027H330ZM344.247 195.027V171.751H428.941V195.027H344.247Z" fill="#211951"/>
<path d="M488.846 197C477.633 197 467.871 194.83 459.56 190.49C451.249 186.019 444.785 179.838 440.168 171.948C435.682 164.058 433.44 154.984 433.44 144.726C433.44 134.337 435.682 125.263 440.168 117.504C444.785 109.614 451.183 103.499 459.362 99.1589C467.541 94.6877 477.04 92.4521 487.857 92.4521C498.279 92.4521 507.315 94.5562 514.967 98.7644C522.618 102.973 528.555 108.825 532.776 116.321C536.998 123.816 539.108 132.627 539.108 142.753C539.108 144.858 539.042 146.83 538.911 148.671C538.779 150.381 538.581 152.025 538.317 153.603H450.853V134.074H514.373L509.228 137.625C509.228 129.471 507.249 123.488 503.292 119.674C499.466 115.729 494.189 113.756 487.461 113.756C479.678 113.756 473.61 116.386 469.256 121.647C465.035 126.907 462.924 134.797 462.924 145.318C462.924 155.575 465.035 163.203 469.256 168.2C473.61 173.197 480.074 175.696 488.649 175.696C493.398 175.696 497.487 174.907 500.917 173.329C504.347 171.751 506.92 169.186 508.635 165.636H536.536C533.238 175.367 527.565 183.06 519.518 188.715C511.603 194.238 501.379 197 488.846 197Z" fill="#211951"/>
<path d="M614.398 195.027C613.606 192.134 613.013 189.044 612.617 185.756C612.353 182.468 612.221 178.655 612.221 174.315H611.43V126.775C611.43 122.699 610.044 119.542 607.274 117.307C604.636 114.94 600.678 113.756 595.401 113.756C590.388 113.756 586.365 114.611 583.33 116.321C580.428 118.03 578.515 120.529 577.592 123.816H549.295C550.614 114.742 555.297 107.247 563.344 101.329C571.392 95.411 582.407 92.4521 596.391 92.4521C610.902 92.4521 621.983 95.674 629.635 102.118C637.286 108.562 641.112 117.833 641.112 129.932V174.315C641.112 177.603 641.31 180.956 641.706 184.375C642.233 187.663 643.025 191.214 644.08 195.027H614.398ZM579.175 197C569.149 197 561.168 194.501 555.231 189.504C549.295 184.375 546.326 177.603 546.326 169.186C546.326 159.849 549.822 152.353 556.814 146.699C563.938 140.912 573.832 137.164 586.496 135.455L615.981 131.312V148.474L591.444 152.222C586.167 153.011 582.275 154.458 579.769 156.562C577.262 158.666 576.009 161.559 576.009 165.241C576.009 168.529 577.196 171.027 579.571 172.737C581.945 174.447 585.111 175.301 589.069 175.301C595.269 175.301 600.546 173.658 604.9 170.37C609.253 166.951 611.43 163.005 611.43 158.534L614.2 174.315C611.298 181.811 606.878 187.466 600.942 191.279C595.005 195.093 587.75 197 579.175 197Z" fill="#211951"/>
<path d="M731.063 195.027V172.737L733.042 173.132C731.723 180.364 727.765 186.151 721.169 190.49C714.705 194.83 706.921 197 697.819 197C688.584 197 680.537 194.896 673.677 190.688C666.949 186.348 661.738 180.299 658.045 172.54C654.351 164.781 652.504 155.641 652.504 145.121C652.504 134.468 654.417 125.197 658.243 117.307C662.068 109.416 667.411 103.301 674.271 98.9616C681.263 94.6219 689.376 92.4521 698.61 92.4521C708.241 92.4521 716.024 94.6877 721.96 99.1589C728.029 103.63 731.591 109.745 732.646 117.504L730.469 117.701V53H760.152V195.027H731.063ZM707.317 173.329C714.309 173.329 719.982 170.896 724.335 166.03C728.688 161.033 730.865 153.932 730.865 144.726C730.865 135.521 728.622 128.485 724.137 123.619C719.784 118.622 714.045 116.123 706.921 116.123C700.062 116.123 694.389 118.622 689.904 123.619C685.55 128.616 683.374 135.718 683.374 144.923C683.374 154.129 685.55 161.164 689.904 166.03C694.389 170.896 700.193 173.329 707.317 173.329Z" fill="#211951"/>
<path d="M820.69 197C805.914 197 794.173 194.041 785.467 188.123C776.76 182.205 772.011 174.052 771.219 163.663H797.735C798.395 168.134 800.638 171.553 804.463 173.921C808.421 176.156 813.83 177.274 820.69 177.274C826.89 177.274 831.375 176.419 834.145 174.71C837.048 172.868 838.499 170.304 838.499 167.016C838.499 164.518 837.641 162.611 835.926 161.296C834.343 159.849 831.375 158.666 827.022 157.745L810.795 154.392C798.791 151.893 789.952 148.145 784.279 143.148C778.607 138.019 775.77 131.444 775.77 123.422C775.77 113.69 779.53 106.129 787.05 100.737C794.569 95.2137 805.057 92.4521 818.513 92.4521C831.837 92.4521 842.456 95.1479 850.372 100.54C858.287 105.8 862.64 113.164 863.432 122.633H836.916C836.388 119.214 834.541 116.649 831.375 114.94C828.209 113.099 823.724 112.178 817.919 112.178C812.642 112.178 808.685 112.967 806.046 114.545C803.54 115.992 802.287 118.096 802.287 120.858C802.287 123.225 803.342 125.132 805.453 126.578C807.563 127.893 811.059 129.077 815.94 130.129L834.145 133.877C844.303 135.981 851.955 139.926 857.1 145.712C862.377 151.367 865.015 158.074 865.015 165.833C865.015 175.696 861.123 183.389 853.34 188.912C845.689 194.304 834.805 197 820.69 197Z" fill="#211951"/>
<path d="M976.857 195.027V94.4247H1005.95V118.096H1006.54V195.027H976.857ZM1047.1 195.027V132.693C1047.1 127.17 1045.65 123.027 1042.75 120.266C1039.98 117.504 1035.89 116.123 1030.48 116.123C1025.87 116.123 1021.71 117.175 1018.02 119.279C1014.45 121.384 1011.62 124.277 1009.51 127.959C1007.53 131.641 1006.54 135.981 1006.54 140.978L1003.97 116.715C1007.26 109.351 1012.08 103.499 1018.41 99.1589C1024.88 94.6877 1032.79 92.4521 1042.16 92.4521C1053.37 92.4521 1061.95 95.6082 1067.88 101.921C1073.82 108.101 1076.79 116.452 1076.79 126.973V195.027H1047.1Z" fill="#211951"/>
<path d="M1142.91 197C1131.69 197 1121.93 194.83 1113.62 190.49C1105.31 186.019 1098.85 179.838 1094.23 171.948C1089.74 164.058 1087.5 154.984 1087.5 144.726C1087.5 134.337 1089.74 125.263 1094.23 117.504C1098.85 109.614 1105.24 103.499 1113.42 99.1589C1121.6 94.6877 1131.1 92.4521 1141.92 92.4521C1152.34 92.4521 1161.38 94.5562 1169.03 98.7644C1176.68 102.973 1182.62 108.825 1186.84 116.321C1191.06 123.816 1193.17 132.627 1193.17 142.753C1193.17 144.858 1193.1 146.83 1192.97 148.671C1192.84 150.381 1192.64 152.025 1192.38 153.603H1104.91V134.074H1168.43L1163.29 137.625C1163.29 129.471 1161.31 123.488 1157.35 119.674C1153.53 115.729 1148.25 113.756 1141.52 113.756C1133.74 113.756 1127.67 116.386 1123.32 121.647C1119.1 126.907 1116.99 134.797 1116.99 145.318C1116.99 155.575 1119.1 163.203 1123.32 168.2C1127.67 173.197 1134.13 175.696 1142.71 175.696C1147.46 175.696 1151.55 174.907 1154.98 173.329C1158.41 171.751 1160.98 169.186 1162.7 165.636H1190.6C1187.3 175.367 1181.63 183.06 1173.58 188.715C1165.66 194.238 1155.44 197 1142.91 197Z" fill="#211951"/>
<path d="M1223.36 195.027L1192.49 94.4247H1223.75L1239.19 164.649H1238.39L1257.79 94.4247H1285.49L1305.08 164.649H1304.29L1319.53 94.4247H1350L1319.13 195.027H1290.64L1270.85 125H1271.64L1251.85 195.027H1223.36Z" fill="#211951"/>
<path d="M895.762 121.304H945.732V171.117H895.762V121.304Z" fill="#836FFF"/>
<path d="M214.589 0.000129678L108.003 0.354237L0 108.357L53.1162 161.473L214.589 0.000129678Z" fill="#211951"/>
<path d="M214.589 0.000129678L108.003 0.354237L0 108.357L53.1162 161.473L214.589 0.000129678Z" fill="url(#paint0_linear_1706_43)" fill-opacity="0.2"/>
<path fill-rule="evenodd" clip-rule="evenodd" d="M249.646 141.997L250 35.4109L88.5269 196.884L141.643 250L249.646 141.997Z" fill="#211951"/>
<path fill-rule="evenodd" clip-rule="evenodd" d="M249.646 141.997L250 35.4109L88.5269 196.884L141.643 250L249.646 141.997Z" fill="url(#paint1_linear_1706_43)" fill-opacity="0.2"/>
<path d="M0 108.357L35.4109 72.9457L88.5271 126.062L53.1162 161.473L0 108.357Z" fill="#836FFF"/>
<path d="M88.5269 196.884L123.938 161.473L177.054 214.589L141.643 250L88.5269 196.884Z" fill="#836FFF"/>
<path d="M160.764 53.8243L214.588 0L249.999 35.4108L196.174 89.2351L160.764 53.8243Z" fill="#836FFF"/>
<path d="M189.092 82.1529L196.174 89.2351L249.999 35.4108L189.092 82.1529Z" fill="#715EE7"/>
<path d="M167.846 60.9065L160.764 53.8243L214.588 0L167.846 60.9065Z" fill="#715EE7"/>
<defs>
<linearGradient id="paint0_linear_1706_43" x1="187.707" y1="0.548432" x2="187.707" y2="82.7853" gradientUnits="userSpaceOnUse">
<stop stop-color="white"/>
<stop offset="1" stop-color="#211951" stop-opacity="0"/>
</linearGradient>
<linearGradient id="paint1_linear_1706_43" x1="249.453" y1="62.294" x2="167.216" y2="62.294" gradientUnits="userSpaceOnUse">
<stop stop-color="white"/>
<stop offset="1" stop-color="#211951" stop-opacity="0"/>
</linearGradient>
</defs>
</svg>
